<svg width="425" height="124" viewBox="0 0 425 124" fill="none" xmlns="http://www.w3.org/2000/svg">
    <path
        d="M91.16 27.88H103.976L110.312 54.592L128.024 27.88H140.84L129.968 79H118.088L124.64 48.4L110.024 70.648H103.688L98.648 48.4L92.096 79H80.288L91.16 27.88ZM139.702 79L150.502 27.88H193.054L182.254 79H170.446L179.086 38.248H160.15L151.582 79H139.702ZM199.071 79.36L201.087 69.64H206.271C207.375 69.64 208.311 69.376 209.079 68.848C209.847 68.32 210.567 67.6 211.239 66.688L211.671 66.112L197.343 27.88H210.087L217.935 54.736L232.119 27.88H244.143L219.519 70.792C218.223 72.904 216.879 74.584 215.487 75.832C214.095 77.08 212.535 77.992 210.807 78.568C209.079 79.096 207.039 79.36 204.687 79.36H199.071ZM238.384 79.432L240.472 69.208C242.056 69.208 243.448 68.824 244.648 68.056C245.896 67.288 247.048 65.968 248.104 64.096C249.208 62.224 250.288 59.632 251.344 56.32C252.448 52.96 253.648 48.712 254.944 43.576L258.832 27.88H294.328L283.528 79H271.72L280.36 38.248H267.616L265.456 47.032C263.824 53.464 262.192 58.792 260.56 63.016C258.976 67.24 257.176 70.552 255.16 72.952C253.192 75.304 250.84 76.984 248.104 77.992C245.416 78.952 242.176 79.432 238.384 79.432ZM293.335 79L304.135 27.88H316.015L312.271 45.52H320.983C324.775 45.52 327.919 46.192 330.415 47.536C332.911 48.88 334.687 50.8 335.743 53.296C336.799 55.792 337.087 58.744 336.607 62.152C336.127 65.512 334.999 68.464 333.223 71.008C331.447 73.552 329.167 75.52 326.383 76.912C323.599 78.304 320.359 79 316.663 79H293.335ZM307.303 69.28H316.375C318.007 69.28 319.375 68.968 320.479 68.344C321.631 67.72 322.543 66.88 323.215 65.824C323.935 64.72 324.391 63.496 324.583 62.152C324.775 60.952 324.703 59.824 324.367 58.768C324.031 57.712 323.383 56.872 322.423 56.248C321.511 55.576 320.215 55.24 318.535 55.24H310.183L307.303 69.28ZM364.638 79.432C360.894 79.432 357.582 78.688 354.702 77.2C351.822 75.664 349.422 73.648 347.502 71.152C345.63 68.608 344.286 65.776 343.47 62.656C342.702 59.488 342.558 56.272 343.038 53.008C343.47 49.888 344.478 46.84 346.062 43.864C347.646 40.84 349.71 38.104 352.254 35.656C354.846 33.208 357.846 31.264 361.254 29.824C364.662 28.336 368.382 27.592 372.414 27.592C377.262 27.592 381.318 28.624 384.582 30.688C387.846 32.752 390.102 35.44 391.35 38.752L381.414 45.088C380.934 43.264 380.094 41.848 378.894 40.84C377.742 39.832 376.422 39.136 374.934 38.752C373.494 38.32 372.054 38.104 370.614 38.104C368.31 38.104 366.246 38.56 364.422 39.472C362.646 40.336 361.086 41.512 359.742 43C358.398 44.488 357.318 46.144 356.502 47.968C355.734 49.792 355.23 51.616 354.99 53.44C354.702 55.456 354.75 57.4 355.134 59.272C355.518 61.144 356.19 62.8 357.15 64.24C358.158 65.68 359.43 66.832 360.966 67.696C362.55 68.512 364.374 68.92 366.438 68.92C367.926 68.92 369.462 68.68 371.046 68.2C372.63 67.72 374.118 66.976 375.51 65.968C376.95 64.912 378.15 63.544 379.11 61.864L387.966 67.552C386.574 70.048 384.582 72.184 381.99 73.96C379.398 75.736 376.566 77.104 373.494 78.064C370.47 78.976 367.518 79.432 364.638 79.432Z"
        fill="black">
    </path>

    <path d="M0 46.4944H28.2609L11.9565 122L75 2L56.5217 97.7303H425" stroke="#E60A0A"
        stroke-width="5">
        <animate attributeName="stroke"
            values="white;#E60A0A;#E60A0A;#E60A0A;#E60A0A;#E60A0A;#E60A0A;#E60A0A;#E60A0A;white"
            repeatCount="indefinite"
            dur="5s"
        />
        <animate attributeName="stroke-width"
        values="7;10;10;10;10;10;10;10;10;7"
        repeatCount="indefinite"
        dur="5s"
    />
    </path>
</svg>